<svg width="1032" height="162" viewBox="0 0 1032 162" fill="none" xmlns="http://www.w3.org/2000/svg">
<path d="M294.512 112.304H264.304L259.824 126H230L263.152 35.3759H295.92L328.944 126H298.992L294.512 112.304ZM287.6 90.9279L279.408 65.7119L271.216 90.9279H287.6Z" fill="#F8F8FF"/>
<path d="M411.816 53.8079V126H383.4V114.992C381.181 118.405 378.195 121.179 374.44 123.312C370.771 125.445 366.376 126.512 361.256 126.512C352.979 126.512 346.493 123.739 341.8 118.192C337.192 112.645 334.888 105.136 334.888 95.6639V53.8079H363.176V92.0799C363.176 95.4933 364.072 98.2239 365.864 100.272C367.741 102.235 370.216 103.216 373.288 103.216C376.445 103.216 378.92 102.235 380.712 100.272C382.504 98.2239 383.4 95.4933 383.4 92.0799V53.8079H411.816Z" fill="#F8F8FF"/>
<path d="M420.81 89.9039C420.81 82.3093 422.09 75.7386 424.65 70.1919C427.295 64.5599 430.879 60.2933 435.402 57.3919C439.925 54.4053 445.002 52.9119 450.634 52.9119C455.327 52.9119 459.338 53.8933 462.666 55.8559C466.079 57.7333 468.682 60.3359 470.474 63.6639V31.2799H498.89V126H470.474V116.144C468.682 119.472 466.079 122.117 462.666 124.08C459.338 125.957 455.327 126.896 450.634 126.896C445.002 126.896 439.925 125.445 435.402 122.544C430.879 119.557 427.295 115.291 424.65 109.744C422.09 104.112 420.81 97.4986 420.81 89.9039ZM470.602 89.9039C470.602 86.0639 469.621 83.0773 467.658 80.9439C465.695 78.8106 463.178 77.7439 460.106 77.7439C457.034 77.7439 454.517 78.8106 452.554 80.9439C450.591 83.0773 449.61 86.0639 449.61 89.9039C449.61 93.7439 450.591 96.7306 452.554 98.8639C454.517 100.997 457.034 102.064 460.106 102.064C463.178 102.064 465.695 100.997 467.658 98.8639C469.621 96.7306 470.602 93.7439 470.602 89.9039Z" fill="#F8F8FF"/>
<path d="M525.986 48.0479C521.037 48.0479 517.069 46.7253 514.082 44.0799C511.095 41.4346 509.602 38.1066 509.602 34.0959C509.602 29.9999 511.095 26.6293 514.082 23.9839C517.069 21.2533 521.037 19.8879 525.986 19.8879C530.85 19.8879 534.775 21.2533 537.762 23.9839C540.749 26.6293 542.242 29.9999 542.242 34.0959C542.242 38.1066 540.749 41.4346 537.762 44.0799C534.775 46.7253 530.85 48.0479 525.986 48.0479ZM540.066 53.8079V126H511.65V53.8079H540.066Z" fill="#F8F8FF"/>
<path d="M587.204 126.896C579.951 126.896 573.423 125.403 567.62 122.416C561.817 119.429 557.252 115.163 553.924 109.616C550.681 103.984 549.06 97.4133 549.06 89.9039C549.06 82.3946 550.681 75.8666 553.924 70.3199C557.252 64.6879 561.817 60.3786 567.62 57.3919C573.423 54.4053 579.951 52.9119 587.204 52.9119C594.457 52.9119 600.985 54.4053 606.788 57.3919C612.591 60.3786 617.113 64.6879 620.356 70.3199C623.684 75.8666 625.348 82.3946 625.348 89.9039C625.348 97.4133 623.684 103.984 620.356 109.616C617.113 115.163 612.591 119.429 606.788 122.416C600.985 125.403 594.457 126.896 587.204 126.896ZM587.204 102.32C589.849 102.32 592.068 101.296 593.86 99.2479C595.652 97.1146 596.548 93.9999 596.548 89.9039C596.548 85.8079 595.652 82.7359 593.86 80.6879C592.068 78.5546 589.849 77.4879 587.204 77.4879C584.559 77.4879 582.34 78.5546 580.548 80.6879C578.756 82.7359 577.86 85.8079 577.86 89.9039C577.86 93.9999 578.713 97.1146 580.42 99.2479C582.212 101.296 584.473 102.32 587.204 102.32Z" fill="#F8F8FF"/>
<path d="M660.259 52.9119C664.952 52.9119 669.006 53.8933 672.419 55.8559C675.832 57.7333 678.435 60.3359 680.227 63.6639V53.8079H708.515V124.72C708.515 131.461 707.278 137.605 704.803 143.152C702.328 148.699 698.318 153.136 692.771 156.464C687.31 159.792 680.27 161.456 671.651 161.456C660.046 161.456 650.83 158.725 644.003 153.264C637.262 147.888 633.422 140.549 632.483 131.248H660.387C661.155 135.003 664.227 136.88 669.603 136.88C672.931 136.88 675.534 136.027 677.411 134.32C679.288 132.613 680.227 129.413 680.227 124.72V116.144C678.435 119.472 675.832 122.117 672.419 124.08C669.006 125.957 664.952 126.896 660.259 126.896C654.627 126.896 649.55 125.445 645.027 122.544C640.504 119.557 636.92 115.291 634.275 109.744C631.715 104.112 630.435 97.4986 630.435 89.9039C630.435 82.3093 631.715 75.7386 634.275 70.1919C636.92 64.5599 640.504 60.2933 645.027 57.3919C649.55 54.4053 654.627 52.9119 660.259 52.9119ZM680.227 89.9039C680.227 86.0639 679.246 83.0773 677.283 80.9439C675.32 78.8106 672.803 77.7439 669.731 77.7439C666.659 77.7439 664.142 78.8106 662.179 80.9439C660.216 83.0773 659.235 86.0639 659.235 89.9039C659.235 93.7439 660.216 96.7306 662.179 98.8639C664.142 100.997 666.659 102.064 669.731 102.064C672.803 102.064 675.32 100.997 677.283 98.8639C679.246 96.7306 680.227 93.7439 680.227 89.9039Z" fill="#F8F8FF"/>
<path d="M749.691 67.1199C752.592 62.9386 756.134 59.6106 760.315 57.1359C764.496 54.5759 768.848 53.2959 773.371 53.2959V83.6319H765.307C759.931 83.6319 755.963 84.5706 753.403 86.4479C750.928 88.3253 749.691 91.6533 749.691 96.4319V126H721.275V53.8079H749.691V67.1199Z" fill="#F8F8FF"/>
<path d="M777.185 89.9039C777.185 82.3093 778.465 75.7386 781.025 70.1919C783.67 64.5599 787.254 60.2933 791.777 57.3919C796.3 54.4053 801.377 52.9119 807.009 52.9119C811.702 52.9119 815.756 53.8933 819.169 55.8559C822.582 57.7333 825.185 60.3359 826.977 63.6639V53.8079H855.265V126H826.977V116.144C825.185 119.472 822.582 122.117 819.169 124.08C815.756 125.957 811.702 126.896 807.009 126.896C801.377 126.896 796.3 125.445 791.777 122.544C787.254 119.557 783.67 115.291 781.025 109.744C778.465 104.112 777.185 97.4986 777.185 89.9039ZM826.977 89.9039C826.977 86.0639 825.996 83.0773 824.033 80.9439C822.07 78.8106 819.553 77.7439 816.481 77.7439C813.409 77.7439 810.892 78.8106 808.929 80.9439C806.966 83.0773 805.985 86.0639 805.985 89.9039C805.985 93.7439 806.966 96.7306 808.929 98.8639C810.892 100.997 813.409 102.064 816.481 102.064C819.553 102.064 822.07 100.997 824.033 98.8639C825.996 96.7306 826.977 93.7439 826.977 89.9039Z" fill="#F8F8FF"/>
<path d="M896.441 63.6639C898.233 60.3359 900.793 57.7333 904.121 55.8559C907.534 53.8933 911.588 52.9119 916.281 52.9119C921.913 52.9119 926.99 54.4053 931.513 57.3919C936.036 60.2933 939.577 64.5599 942.137 70.1919C944.782 75.7386 946.105 82.3093 946.105 89.9039C946.105 97.4986 944.782 104.112 942.137 109.744C939.577 115.291 936.036 119.557 931.513 122.544C926.99 125.445 921.913 126.896 916.281 126.896C911.588 126.896 907.534 125.957 904.121 124.08C900.793 122.117 898.233 119.472 896.441 116.144V160.56H868.025V53.8079H896.441V63.6639ZM917.305 89.9039C917.305 86.0639 916.324 83.0773 914.361 80.9439C912.398 78.8106 909.881 77.7439 906.809 77.7439C903.737 77.7439 901.22 78.8106 899.257 80.9439C897.294 83.0773 896.313 86.0639 896.313 89.9039C896.313 93.7439 897.294 96.7306 899.257 98.8639C901.22 100.997 903.737 102.064 906.809 102.064C909.881 102.064 912.398 100.997 914.361 98.8639C916.324 96.7306 917.305 93.7439 917.305 89.9039Z" fill="#F8F8FF"/>
<path d="M1005.59 53.2959C1013.86 53.2959 1020.31 56.0693 1024.91 61.6159C1029.61 67.1626 1031.95 74.6719 1031.95 84.1439V126H1003.66V87.7279C1003.66 84.3146 1002.73 81.6266 1000.85 79.6639C999.057 77.6159 996.625 76.5919 993.553 76.5919C990.396 76.5919 987.921 77.6159 986.129 79.6639C984.337 81.6266 983.441 84.3146 983.441 87.7279V126H955.025V31.2799H983.441V64.8159C985.66 61.4026 988.604 58.6293 992.273 56.4959C996.028 54.3626 1000.47 53.2959 1005.59 53.2959Z" fill="#F8F8FF"/>
<path d="M151.035 160.378L139.5 140.356L151.215 120.231L174.465 120.128L186 140.149L174.285 160.274L151.035 160.378Z" fill="#40F99B"/>
<path d="M151.394 80.085L104.535 160.585L81.2853 160.689L69.75 140.668L116.609 60.1675L139.859 60.0638L151.394 80.085Z" fill="#3185FC"/>
<path d="M116.788 20.0213L34.7853 160.896L11.5353 161L0 140.979L82.0026 0.10374L105.253 0L116.788 20.0213Z" fill="#FC2453"/>
</svg>
