<svg width="1119" height="192" viewBox="0 0 1119 192" fill="none" xmlns="http://www.w3.org/2000/svg">
<path d="M151.035 175.378L139.5 155.356L151.215 135.231L174.465 135.128L186 155.149L174.285 175.274L151.035 175.378Z" fill="#40F99B"/>
<path d="M151.394 95.085L104.535 175.585L81.2853 175.689L69.75 155.668L116.609 75.1675L139.859 75.0638L151.394 95.085Z" fill="#3185FC"/>
<path d="M116.788 35.0213L34.7853 175.896L11.5353 176L0 155.979L82.0026 15.1037L105.253 15L116.788 35.0213Z" fill="#FC2453"/>
<path d="M294.512 127.304H264.304L259.824 141H230L263.152 50.376H295.92L328.944 141H298.992L294.512 127.304ZM287.6 105.928L279.408 80.712L271.216 105.928H287.6ZM363.176 50.376V101.448C363.176 105.629 364.072 108.957 365.864 111.432C367.741 113.821 370.728 115.016 374.824 115.016C378.92 115.016 381.949 113.821 383.912 111.432C385.875 108.957 386.856 105.629 386.856 101.448V50.376H415.144V101.448C415.144 110.067 413.352 117.448 409.768 123.592C406.184 129.651 401.277 134.216 395.048 137.288C388.819 140.36 381.864 141.896 374.184 141.896C366.504 141.896 359.677 140.36 353.704 137.288C347.816 134.216 343.208 129.651 339.88 123.592C336.552 117.533 334.888 110.152 334.888 101.448V50.376H363.176ZM465.16 50.376C474.632 50.376 482.909 52.296 489.992 56.136C497.16 59.976 502.664 65.3093 506.504 72.136C510.344 78.9627 512.264 86.728 512.264 95.432C512.264 104.051 510.344 111.816 506.504 118.728C502.664 125.64 497.16 131.101 489.992 135.112C482.909 139.037 474.632 141 465.16 141H427.4V50.376H465.16ZM462.6 115.656C469 115.656 474.077 113.907 477.832 110.408C481.587 106.909 483.464 101.917 483.464 95.432C483.464 88.9467 481.587 83.9547 477.832 80.456C474.077 76.9573 469 75.208 462.6 75.208H455.816V115.656H462.6ZM550.941 50.376V141H522.525V50.376H550.941ZM607.935 141.896C599.402 141.896 591.551 139.891 584.383 135.88C577.3 131.869 571.668 126.323 567.487 119.24C563.306 112.157 561.215 104.179 561.215 95.304C561.215 86.4293 563.306 78.4507 567.487 71.368C571.668 64.2853 577.3 58.7813 584.383 54.856C591.551 50.8453 599.402 48.84 607.935 48.84C616.468 48.84 624.276 50.8453 631.359 54.856C638.442 58.7813 644.031 64.2853 648.127 71.368C652.308 78.4507 654.399 86.4293 654.399 95.304C654.399 104.179 652.308 112.157 648.127 119.24C644.031 126.323 638.399 131.869 631.231 135.88C624.148 139.891 616.383 141.896 607.935 141.896ZM607.935 115.4C613.567 115.4 617.919 113.608 620.991 110.024C624.063 106.355 625.599 101.448 625.599 95.304C625.599 89.0747 624.063 84.168 620.991 80.584C617.919 76.9147 613.567 75.08 607.935 75.08C602.218 75.08 597.823 76.9147 594.751 80.584C591.679 84.168 590.143 89.0747 590.143 95.304C590.143 101.448 591.679 106.355 594.751 110.024C597.823 113.608 602.218 115.4 607.935 115.4ZM720.202 81.352C719.093 79.56 717.514 78.1947 715.466 77.256C713.418 76.232 710.943 75.72 708.042 75.72C702.581 75.72 698.357 77.512 695.37 81.096C692.383 84.5947 690.89 89.416 690.89 95.56C690.89 102.643 692.554 107.933 695.882 111.432C699.21 114.931 704.33 116.68 711.242 116.68C717.813 116.68 723.103 114.035 727.114 108.744H704.458V88.648H750.666V117.064C746.741 123.805 741.322 129.608 734.41 134.472C727.498 139.251 718.751 141.64 708.17 141.64C698.783 141.64 690.591 139.72 683.594 135.88C676.682 131.955 671.349 126.493 667.594 119.496C663.925 112.499 662.09 104.52 662.09 95.56C662.09 86.6 663.925 78.6213 667.594 71.624C671.349 64.6267 676.682 59.208 683.594 55.368C690.506 51.4427 698.613 49.48 707.914 49.48C719.775 49.48 729.418 52.3387 736.842 58.056C744.351 63.7733 748.789 71.5387 750.154 81.352H720.202ZM806.468 141L789.444 108.488H789.316V141H760.9V50.376H803.14C810.479 50.376 816.751 51.6987 821.956 54.344C827.161 56.904 831.044 60.4453 833.604 64.968C836.249 69.4053 837.572 74.44 837.572 80.072C837.572 86.1307 835.865 91.5067 832.452 96.2C829.124 100.893 824.303 104.264 817.988 106.312L837.7 141H806.468ZM789.316 89.544H800.58C803.311 89.544 805.359 88.9467 806.724 87.752C808.089 86.472 808.772 84.5093 808.772 81.864C808.772 79.4747 808.047 77.5973 806.596 76.232C805.231 74.8667 803.225 74.184 800.58 74.184H789.316V89.544ZM904.762 127.304H874.554L870.074 141H840.25L873.402 50.376H906.17L939.194 141H909.242L904.762 127.304ZM897.85 105.928L889.658 80.712L881.466 105.928H897.85ZM1019.76 81.48C1019.76 87.1973 1018.44 92.4027 1015.79 97.096C1013.15 101.704 1009.22 105.373 1004.02 108.104C998.898 110.835 992.669 112.2 985.33 112.2H974.066V141H945.65V50.376H985.33C996.423 50.376 1004.91 53.192 1010.8 58.824C1016.78 64.456 1019.76 72.008 1019.76 81.48ZM982.13 89.8C988.018 89.8 990.962 87.0267 990.962 81.48C990.962 75.9333 988.018 73.16 982.13 73.16H974.066V89.8H982.13ZM1112.62 50.376V141H1084.2V105.672H1057.19V141H1028.78V50.376H1057.19V83.016H1084.2V50.376H1112.62Z" fill="white"/>
</svg>
